<svg width="126" height="20" viewBox="0 0 126 20" fill="none" xmlns="http://www.w3.org/2000/svg">
<path d="M5.888 12.904H3.68V19H0.368V2.2H6.584C7.928 2.2 9.056 2.456 9.968 2.968C10.88 3.48 11.552 4.144 11.984 4.96C12.416 5.776 12.632 6.664 12.632 7.624C12.632 8.728 12.344 9.728 11.768 10.624C11.192 11.504 10.32 12.136 9.152 12.52L12.944 19H9.464L5.888 12.904ZM3.68 10.192H6.08C7.008 10.192 7.792 10 8.432 9.616C9.088 9.216 9.416 8.552 9.416 7.624C9.416 6.696 9.096 6.048 8.456 5.68C7.816 5.296 7.024 5.104 6.08 5.104H3.68V10.192ZM18.4576 19.192C16.8896 19.192 15.6656 18.592 14.7856 17.392C13.9056 16.192 13.4656 14.608 13.4656 12.64C13.4656 10.64 13.9056 9.04 14.7856 7.84C15.6816 6.624 16.9296 6.016 18.5296 6.016C19.6016 6.016 20.4416 6.264 21.0496 6.76C21.6576 7.24 22.0896 7.752 22.3456 8.296H22.5376V6.328H25.8736V19H22.5376V16.816H22.3456C22.0576 17.408 21.6096 17.952 21.0016 18.448C20.3936 18.944 19.5456 19.192 18.4576 19.192ZM19.6816 16.504C20.6256 16.504 21.3376 16.12 21.8176 15.352C22.2976 14.584 22.5376 13.664 22.5376 12.592C22.5376 11.52 22.2976 10.608 21.8176 9.856C21.3536 9.104 20.6416 8.728 19.6816 8.728C18.7216 8.728 18.0096 9.104 17.5456 9.856C17.0816 10.608 16.8496 11.52 16.8496 12.592C16.8496 13.68 17.0816 14.608 17.5456 15.376C18.0096 16.128 18.7216 16.504 19.6816 16.504ZM32.4604 19.192C30.8604 19.192 29.6204 18.592 28.7404 17.392C27.8764 16.192 27.4444 14.608 27.4444 12.64C27.4444 10.624 27.8764 9.016 28.7404 7.816C29.6204 6.616 30.8684 6.016 32.4844 6.016C33.5724 6.016 34.4204 6.264 35.0284 6.76C35.6364 7.24 36.0684 7.752 36.3244 8.296H36.5164V0.975999H39.8524V19H36.5164V16.816H36.3244C36.0364 17.408 35.5884 17.952 34.9804 18.448C34.3724 18.944 33.5324 19.192 32.4604 19.192ZM33.6604 16.552C34.6044 16.552 35.3164 16.168 35.7964 15.4C36.2764 14.632 36.5164 13.712 36.5164 12.64C36.5164 11.584 36.2764 10.672 35.7964 9.904C35.3164 9.136 34.6044 8.752 33.6604 8.752C32.7004 8.752 31.9804 9.136 31.5004 9.904C31.0364 10.656 30.8044 11.56 30.8044 12.616C30.8044 13.704 31.0364 14.632 31.5004 15.4C31.9804 16.168 32.7004 16.552 33.6604 16.552ZM41.9786 6.328H45.2906V19H41.9786V6.328ZM43.6106 4.144C43.0826 4.144 42.6426 3.968 42.2906 3.616C41.9386 3.248 41.7626 2.808 41.7626 2.296C41.7626 1.768 41.9386 1.328 42.2906 0.975999C42.6426 0.623999 43.0826 0.447999 43.6106 0.447999C44.1386 0.447999 44.5786 0.631999 44.9306 0.999999C45.2826 1.352 45.4586 1.784 45.4586 2.296C45.4586 2.808 45.2826 3.248 44.9306 3.616C44.5786 3.968 44.1386 4.144 43.6106 4.144ZM50.5349 12.664L46.6709 6.328H50.3189L52.7189 10.672H52.8149L55.2149 6.328H58.8389L54.9269 12.664L58.8389 19H55.2149L52.8149 14.632H52.7189L50.3429 19H46.6949L50.5349 12.664Z" fill="#F3603C"/>
<path d="M73.7796 2.2V19H70.4436V11.872H63.5556V19H60.2196V2.2H63.5556V9.256H70.4436V2.2H73.7796ZM79.9966 19.192C78.4286 19.192 77.2046 18.592 76.3246 17.392C75.4446 16.192 75.0046 14.608 75.0046 12.64C75.0046 10.64 75.4446 9.04 76.3246 7.84C77.2206 6.624 78.4686 6.016 80.0686 6.016C81.1406 6.016 81.9806 6.264 82.5886 6.76C83.1966 7.24 83.6286 7.752 83.8846 8.296H84.0766V6.328H87.4126V19H84.0766V16.816H83.8846C83.5966 17.408 83.1486 17.952 82.5406 18.448C81.9326 18.944 81.0846 19.192 79.9966 19.192ZM81.2206 16.504C82.1646 16.504 82.8766 16.12 83.3566 15.352C83.8366 14.584 84.0766 13.664 84.0766 12.592C84.0766 11.52 83.8366 10.608 83.3566 9.856C82.8926 9.104 82.1806 8.728 81.2206 8.728C80.2606 8.728 79.5486 9.104 79.0846 9.856C78.6206 10.608 78.3886 11.52 78.3886 12.592C78.3886 13.68 78.6206 14.608 79.0846 15.376C79.5486 16.128 80.2606 16.504 81.2206 16.504ZM88.0107 6.328H91.1547L94.1787 15.64H94.3227L97.2987 6.328H100.443L96.2187 19H92.2107L88.0107 6.328ZM106.618 19.192C105.29 19.192 104.17 18.888 103.258 18.28C102.346 17.656 101.666 16.848 101.218 15.856C100.786 14.848 100.57 13.768 100.57 12.616C100.57 11.464 100.786 10.392 101.218 9.4C101.666 8.392 102.346 7.576 103.258 6.952C104.17 6.328 105.298 6.016 106.642 6.016C108.418 6.016 109.826 6.584 110.866 7.72C111.922 8.856 112.45 10.496 112.45 12.64V13.552H103.762V13.744C103.762 14.512 104.026 15.176 104.554 15.736C105.082 16.28 105.746 16.552 106.546 16.552C107.17 16.552 107.698 16.408 108.13 16.12C108.562 15.832 108.874 15.44 109.066 14.944H112.33C111.994 16.192 111.338 17.216 110.362 18.016C109.386 18.8 108.138 19.192 106.618 19.192ZM109.258 11.392C109.226 10.384 108.97 9.64 108.49 9.16C108.01 8.68 107.378 8.44 106.594 8.44C105.762 8.44 105.106 8.704 104.626 9.232C104.146 9.76 103.89 10.48 103.858 11.392H109.258ZM113.782 6.328H117.142V8.272H117.31C117.598 7.648 118.062 7.12 118.702 6.688C119.342 6.24 120.118 6.016 121.03 6.016C122.678 6.016 123.838 6.544 124.51 7.6C125.198 8.656 125.542 9.856 125.542 11.2V19H122.23V11.752C122.23 10.824 122.006 10.096 121.558 9.568C121.126 9.04 120.51 8.776 119.71 8.776C118.862 8.776 118.222 9.056 117.79 9.616C117.358 10.16 117.142 10.872 117.142 11.752V19H113.782V6.328Z" fill="white"/>
</svg>
